<svg id="Capa_1" data-name="Capa 1" xmlns="http://www.w3.org/2000/svg" viewBox="0 0 632.75 635.05"><defs><style>.cls-1{fill:#e5e8ec;}.cls-2{fill:#ced0d4;}.cls-3{fill:#f07782;}.cls-4{fill:#d44c5a;}.cls-5{fill:#7a3b41;}.cls-6{fill:#ec5563;}</style></defs><title>pokeball</title><path class="cls-1" d="M377.8,677.52h-1.59c-1.08-.77-2.31-.4-3.46-.37-33.4.69-65.38-6.63-96.51-17.91a311.62,311.62,0,0,1-94.32-54.53,319.2,319.2,0,0,1-70.58-83A315,315,0,0,1,71.41,412.05c-.67-4.05-1.21-8.11-1.75-12.18-.31-2.36-.19-4.59,2.8-5.27,8.23-.06,16.29,1.59,24.42,2.49,20.76,2.31,41.52,4.45,62.34,6.17,15.67,1.29,31.34,2.63,47,3.54,11.21.66,22.38,2,33.63,1.88,6.64,0,7.24.34,9.66,6.54A117.58,117.58,0,0,0,295.42,472c16.67,11,35.07,16.89,55,18.59,53.17,4.52,101.61-28.84,119.23-75.8,2-5.38,3-5.9,8.77-6.11,16.37-.58,32.7-1.77,49-2.93,14.89-1.05,29.78-2.14,44.65-3.47q24.69-2.21,49.3-5.08c9.06-1.06,18.11-2.21,27.16-3.39,7.14-.94,14.28-1.88,21.4-2.92,1.69-.24,3.38-.54,5,.19,1.86,1.17,1.33,3.07,1.18,4.68-2.25,24.62-8.09,48.46-16.39,71.69A311.76,311.76,0,0,1,617,548,320.83,320.83,0,0,1,414.74,674.17a212.05,212.05,0,0,1-31.11,3C381.69,677.21,379.69,676.67,377.8,677.52Z" transform="translate(-43.63 -42.47)"/><path class="cls-2" d="M340.31,676.84C279,673.35,223.36,653.41,173.75,617.4,113.56,573.72,73.39,515.8,53.2,444.17a274.94,274.94,0,0,1-9.57-52.4c1.22-1.39,2.84-1.27,4.41-1,7.19,1.08,14.42,1.83,21.6,3,1.21.17,2.42.33,2.75,1.82-2.24.52-1.89,2.26-1.68,3.81,3.86,28,10.56,55.33,21.5,81.49A319.23,319.23,0,0,0,118,530.3a325,325,0,0,0,36.68,46.92,318.08,318.08,0,0,0,77.58,60.52,306.33,306.33,0,0,0,72.11,29.11A336.69,336.69,0,0,0,356,676.09c5.42.54,10.79.38,16.18.62,1.39.07,2.95-.58,4.08.81h-27C346.31,676.49,343.24,677.69,340.31,676.84Z" transform="translate(-43.63 -42.47)"/><path class="cls-3" d="M380.27,43.15a311.28,311.28,0,0,1,110,27.53Q572.16,108,622.73,182.51c26.36,38.9,43.44,81.62,50.42,128.23.65,4.31,1.15,8.64,1.71,13a2,2,0,0,1-1.78,2.57c-8,1.44-15.86,3.64-24.09,2.72-1.49-.85-1.54-2.34-1.69-3.79a308.21,308.21,0,0,0-27.25-98.12A316.68,316.68,0,0,0,375,46.38c-6.27-.85-12.59-1.48-18.92-2-1.19-.29-2.81,0-2.84-2h19.05C374.85,43.48,377.64,42.35,380.27,43.15Z" transform="translate(-43.63 -42.47)"/><path class="cls-4" d="M353.19,42.47c.87,1.06,2.1.67,3.2.8-.43,2.46-2.52,1.88-4,2.06a334,334,0,0,0-56,11.16,313.79,313.79,0,0,0-67.27,28.93,319.17,319.17,0,0,0-58.58,43.26,315.29,315.29,0,0,0-70.34,95.59,306.2,306.2,0,0,0-28.52,99.86A9.9,9.9,0,0,1,70.21,329a2.54,2.54,0,0,1-1.13.66c-7.31-.47-14.49-1.88-21.71-3-2.62-.39-4-1.83-3.18-4.66A318.17,318.17,0,0,1,194,89.09a309.86,309.86,0,0,1,105.78-41,293.57,293.57,0,0,1,40.08-5c1,0,2.14.13,3-.63Z" transform="translate(-43.63 -42.47)"/><path class="cls-5" d="M380.27,43.15c-2.7.13-5.44.63-8-.68h7.94A3.09,3.09,0,0,0,380.27,43.15Z" transform="translate(-43.63 -42.47)"/><path class="cls-6" d="M648.45,329c-12.72,1.44-25.43,2.95-38.15,4.31-14.7,1.57-29.4,3.21-44.12,4.46-20.13,1.71-40.28,3.14-60.43,4.59-9.49.68-19,1-28.48,1.69-2.73.19-2.9-1.65-3.41-3.39a115.51,115.51,0,0,0-18.39-37.52c-20.55-27.29-47.59-43.92-81.69-47.84-39.32-4.51-73,7.9-100.57,36.14a111.36,111.36,0,0,0-28,48.59c-.94,3.37-2.38,4.12-5.84,3.82-11.05-1-22.15-1.35-33.22-2.07-19.37-1.25-38.74-2.44-58.05-4.51-16.53-1.77-33.09-3.3-49.63-5-9.58-1-19.14-2.19-28.7-3.29A323.57,323.57,0,0,1,96.67,229a329.11,329.11,0,0,1,36.17-60.71c6.76-9.06,14.41-17.44,22.08-25.8,18.59-20.24,39.87-37.12,63-51.85C232.81,81.15,248.68,73.4,265,66.4c21.91-9.43,44.79-15.48,68.18-19.69,6.84-1.23,13.8-1.8,20.71-2.64.92-.11,1.86,0,2.55-.8a347.48,347.48,0,0,1,41.76,5.82c29.85,6.07,58,16.75,84.85,31A304.06,304.06,0,0,1,536,116a299.4,299.4,0,0,1,22.83,20.73c21.41,22.06,39.76,46.4,54.24,73.63a310.41,310.41,0,0,1,29.37,77.9c3,13.22,5.64,26.51,6.23,40.11C648.56,328.54,648.51,328.74,648.45,329Z" transform="translate(-43.63 -42.47)"/><path class="cls-1" d="M359.35,426c-29.44-.06-52.64-23.35-52.77-53-.12-28.85,24.08-52.81,53.24-52.7,29,.12,52.75,24.23,52.64,53.4C412.35,402.67,388.61,426,359.35,426Z" transform="translate(-43.63 -42.47)"/></svg>